<svg width="18" height="18" viewBox="0 0 18 18" fill="none" xmlns="http://www.w3.org/2000/svg">
<path d="M13.5 11H14.5V9.5H16V8.5H14.5V7H13.5V8.5H12V9.5H13.5V11ZM8.5 12H10V9.75L11.75 12H13.5L11.25 9L13.5 6H11.75L10 8.25V6H8.5V12ZM5.5 12H7V10.5H8V9H7V6H5.5V9H4V6H2.5V10.5H5.5V12ZM2 18C1.45 18 0.979167 17.8042 0.5875 17.4125C0.195833 17.0208 0 16.55 0 16V2C0 1.45 0.195833 0.979167 0.5875 0.5875C0.979167 0.195833 1.45 0 2 0H16C16.55 0 17.0208 0.195833 17.4125 0.5875C17.8042 0.979167 18 1.45 18 2V16C18 16.55 17.8042 17.0208 17.4125 17.4125C17.0208 17.8042 16.55 18 16 18H2Z" fill="#F6F6F6"/>
</svg>
