<svg width="20" height="18" viewBox="0 0 20 18" fill="none" xmlns="http://www.w3.org/2000/svg">
<path d="M2.5 18C1.95 18 1.47917 17.8042 1.0875 17.4125C0.695833 17.0208 0.5 16.55 0.5 16V2C0.5 1.45 0.695833 0.979167 1.0875 0.5875C1.47917 0.195833 1.95 0 2.5 0H16.5C17.05 0 17.5208 0.195833 17.9125 0.5875C18.3042 0.979167 18.5 1.45 18.5 2V4.5H16.5V2H2.5V16H16.5V13.5H18.5V16C18.5 16.55 18.3042 17.0208 17.9125 17.4125C17.5208 17.8042 17.05 18 16.5 18H2.5ZM10.5 14C9.95 14 9.47917 13.8042 9.0875 13.4125C8.69583 13.0208 8.5 12.55 8.5 12V6C8.5 5.45 8.69583 4.97917 9.0875 4.5875C9.47917 4.19583 9.95 4 10.5 4H17.5C18.05 4 18.5208 4.19583 18.9125 4.5875C19.3042 4.97917 19.5 5.45 19.5 6V12C19.5 12.55 19.3042 13.0208 18.9125 13.4125C18.5208 13.8042 18.05 14 17.5 14H10.5ZM17.5 12V6H10.5V12H17.5ZM13.5 10.5C13.9167 10.5 14.2708 10.3542 14.5625 10.0625C14.8542 9.77083 15 9.41667 15 9C15 8.58333 14.8542 8.22917 14.5625 7.9375C14.2708 7.64583 13.9167 7.5 13.5 7.5C13.0833 7.5 12.7292 7.64583 12.4375 7.9375C12.1458 8.22917 12 8.58333 12 9C12 9.41667 12.1458 9.77083 12.4375 10.0625C12.7292 10.3542 13.0833 10.5 13.5 10.5Z" fill="#F6F6F6"/>
</svg>
