<svg width="22" height="22" viewBox="0 0 22 22" fill="none" xmlns="http://www.w3.org/2000/svg">
<path d="M10.45 16.75C8.85 16.6667 7.5 16.05 6.4 14.9C5.3 13.75 4.75 12.3667 4.75 10.75C4.75 9.08333 5.33333 7.66667 6.5 6.5C7.66667 5.33333 9.08333 4.75 10.75 4.75C12.3667 4.75 13.75 5.3 14.9 6.4C16.05 7.5 16.6667 8.85 16.75 10.45L14.65 9.825C14.4333 8.925 13.9667 8.1875 13.25 7.6125C12.5333 7.0375 11.7 6.75 10.75 6.75C9.65 6.75 8.70833 7.14167 7.925 7.925C7.14167 8.70833 6.75 9.65 6.75 10.75C6.75 11.7 7.0375 12.5333 7.6125 13.25C8.1875 13.9667 8.925 14.4333 9.825 14.65L10.45 16.75ZM11.65 20.7C11.5 20.7333 11.35 20.75 11.2 20.75H10.75C9.36667 20.75 8.06667 20.4875 6.85 19.9625C5.63333 19.4375 4.575 18.725 3.675 17.825C2.775 16.925 2.0625 15.8667 1.5375 14.65C1.0125 13.4333 0.75 12.1333 0.75 10.75C0.75 9.36667 1.0125 8.06667 1.5375 6.85C2.0625 5.63333 2.775 4.575 3.675 3.675C4.575 2.775 5.63333 2.0625 6.85 1.5375C8.06667 1.0125 9.36667 0.75 10.75 0.75C12.1333 0.75 13.4333 1.0125 14.65 1.5375C15.8667 2.0625 16.925 2.775 17.825 3.675C18.725 4.575 19.4375 5.63333 19.9625 6.85C20.4875 8.06667 20.75 9.36667 20.75 10.75V11.2C20.75 11.35 20.7333 11.5 20.7 11.65L18.75 11.05V10.75C18.75 8.51667 17.975 6.625 16.425 5.075C14.875 3.525 12.9833 2.75 10.75 2.75C8.51667 2.75 6.625 3.525 5.075 5.075C3.525 6.625 2.75 8.51667 2.75 10.75C2.75 12.9833 3.525 14.875 5.075 16.425C6.625 17.975 8.51667 18.75 10.75 18.75H11.05L11.65 20.7ZM19.275 21.25L15 16.975L13.75 20.75L10.75 10.75L20.75 13.75L16.975 15L21.25 19.275L19.275 21.25Z" fill="#F6F6F6"/>
</svg>
