<svg width="20" height="20" viewBox="0 0 20 20" fill="none" xmlns="http://www.w3.org/2000/svg">
<path d="M9.92065 11.5505L15.9206 7.55054L9.92065 3.55054V11.5505ZM6.94565 15.0505C6.39565 15.0505 5.92481 14.8547 5.53315 14.463C5.14148 14.0714 4.94565 13.6005 4.94565 13.0505V2.05054C4.94565 1.50054 5.14148 1.0297 5.53315 0.638037C5.92481 0.24637 6.39565 0.0505371 6.94565 0.0505371H17.9456C18.4956 0.0505371 18.9665 0.24637 19.3581 0.638037C19.7498 1.0297 19.9456 1.50054 19.9456 2.05054V13.0505C19.9456 13.6005 19.7498 14.0714 19.3581 14.463C18.9665 14.8547 18.4956 15.0505 17.9456 15.0505H6.94565ZM3.64565 19.9255C3.09565 20.0089 2.60398 19.8755 2.17065 19.5255C1.73731 19.1755 1.48731 18.7255 1.42065 18.1755L0.0706478 7.25054C0.00398115 6.70054 0.141481 6.20887 0.483148 5.77554C0.824814 5.3422 1.27065 5.0922 1.82065 5.02554L2.94565 4.90054V14.0505C2.94565 14.8839 3.23731 15.5922 3.82065 16.1755C4.40398 16.7589 5.11231 17.0505 5.94565 17.0505H16.2206C16.1206 17.4505 15.9206 17.7964 15.6206 18.088C15.3206 18.3797 14.954 18.5505 14.5206 18.6005L3.64565 19.9255Z" fill="#F6F6F6"/>
</svg>
