<svg width="16" height="10" viewBox="0 0 16 10" fill="none" xmlns="http://www.w3.org/2000/svg">
<path d="M11 10H3V8H7C6.76667 7.71667 6.57917 7.40417 6.4375 7.0625C6.29583 6.72083 6.18333 6.36667 6.1 6H0.5V4H6.1C6.18333 3.63333 6.29583 3.27917 6.4375 2.9375C6.57917 2.59583 6.76667 2.28333 7 2H0V0H11C12.3833 0 13.5625 0.4875 14.5375 1.4625C15.5125 2.4375 16 3.61667 16 5C16 6.38333 15.5125 7.5625 14.5375 8.5375C13.5625 9.5125 12.3833 10 11 10ZM11 8C11.8333 8 12.5417 7.70833 13.125 7.125C13.7083 6.54167 14 5.83333 14 5C14 4.16667 13.7083 3.45833 13.125 2.875C12.5417 2.29167 11.8333 2 11 2C10.1667 2 9.45833 2.29167 8.875 2.875C8.29167 3.45833 8 4.16667 8 5C8 5.83333 8.29167 6.54167 8.875 7.125C9.45833 7.70833 10.1667 8 11 8ZM0 10V8H2V10H0Z" fill="#F6F6F6"/>
</svg>
