<svg width="22" height="22" viewBox="0 0 22 22" fill="none" xmlns="http://www.w3.org/2000/svg">
<path d="M8.73751 7.31245L10.2375 8.81245H7.21251V11.8125H9.21251V11.3125H10.7125V12.3125C10.7125 12.5958 10.6167 12.8333 10.425 13.025C10.2333 13.2166 9.99585 13.3125 9.71251 13.3125H6.71251C6.42918 13.3125 6.19168 13.2166 6.00001 13.025C5.80835 12.8333 5.71251 12.5958 5.71251 12.3125V8.31245C5.71251 8.02912 5.80835 7.79162 6.00001 7.59995C6.19168 7.40828 6.42918 7.31245 6.71251 7.31245H8.73751ZM6.58751 2.31245H18.7125C19.2625 2.31245 19.7333 2.50828 20.125 2.89995C20.5167 3.29162 20.7125 3.76245 20.7125 4.31245V16.4375L18.7125 14.4375V4.31245H8.58751L6.58751 2.31245ZM17.7125 11.3125V12.3125C17.7125 12.4625 17.6833 12.6083 17.625 12.75C17.5667 12.8916 17.4792 13.0041 17.3625 13.0875L16.0875 11.8125H16.2125V11.3125H17.7125ZM16.2125 9.31245V8.81245H14.2125V9.93745L12.7125 8.43745V8.31245C12.7125 8.02912 12.8083 7.79162 13 7.59995C13.1917 7.40828 13.4292 7.31245 13.7125 7.31245H16.7125C16.9958 7.31245 17.2333 7.40828 17.425 7.59995C17.6167 7.79162 17.7125 8.02912 17.7125 8.31245V9.31245H16.2125ZM3.91251 2.48745L5.73751 4.31245H4.71251V16.3125H14.8875L0.387512 1.81245L1.81251 0.387451L21.6125 20.1875L20.1875 21.6125L16.8875 18.3125H4.71251C4.16251 18.3125 3.69168 18.1166 3.30001 17.725C2.90835 17.3333 2.71251 16.8625 2.71251 16.3125V4.31245C2.71251 3.89578 2.82501 3.52495 3.05001 3.19995C3.27501 2.87495 3.56251 2.63745 3.91251 2.48745Z" fill="#F6F6F6"/>
</svg>
