<svg width="20" height="19" viewBox="0 0 20 19" fill="none" xmlns="http://www.w3.org/2000/svg">
<path d="M6 18.0784V16.0784H8V14.0784H2C1.45 14.0784 0.979167 13.8825 0.5875 13.4909C0.195833 13.0992 0 12.6284 0 12.0784V2.07837C0 1.52837 0.195833 1.05754 0.5875 0.665869C0.979167 0.274202 1.45 0.0783691 2 0.0783691H18C18.55 0.0783691 19.0208 0.274202 19.4125 0.665869C19.8042 1.05754 20 1.52837 20 2.07837V12.0784C20 12.6284 19.8042 13.0992 19.4125 13.4909C19.0208 13.8825 18.55 14.0784 18 14.0784H12V16.0784H14V18.0784H6ZM2 12.0784H18V2.07837H2V12.0784Z" fill="#F6F6F6"/>
</svg>
