<svg width="20" height="20" viewBox="0 0 20 20" fill="none" xmlns="http://www.w3.org/2000/svg">
<path d="M10 19.175L8.55 17.875C6.86667 16.3583 5.475 15.05 4.375 13.95C3.275 12.85 2.4 11.8625 1.75 10.9875C1.1 10.1125 0.645833 9.30828 0.3875 8.57495C0.129167 7.84162 0 7.09162 0 6.32495C0 4.75828 0.525 3.44995 1.575 2.39995C2.625 1.34995 3.93333 0.824951 5.5 0.824951C6.36667 0.824951 7.19167 1.00828 7.975 1.37495C8.75833 1.74162 9.43333 2.25828 10 2.92495C10.5667 2.25828 11.2417 1.74162 12.025 1.37495C12.8083 1.00828 13.6333 0.824951 14.5 0.824951C16.0667 0.824951 17.375 1.34995 18.425 2.39995C19.475 3.44995 20 4.75828 20 6.32495C20 7.09162 19.8708 7.84162 19.6125 8.57495C19.3542 9.30828 18.9 10.1125 18.25 10.9875C17.6 11.8625 16.725 12.85 15.625 13.95C14.525 15.05 13.1333 16.3583 11.45 17.875L10 19.175Z" fill="#F6F6F6"/>
</svg>
