<svg width="18" height="6" viewBox="0 0 18 6" fill="none" xmlns="http://www.w3.org/2000/svg">
<path d="M13 6V0H16.5C16.9 0 17.25 0.15 17.55 0.45C17.85 0.75 18 1.1 18 1.5V2.5C18 2.88333 17.9125 3.17917 17.7375 3.3875C17.5625 3.59583 17.35 3.76667 17.1 3.9L18 6H16.5L15.6 4H14.5V6H13ZM14.5 2.5H16.5V1.5H14.5V2.5ZM0 6V0H1.5V2H3.5V0H5V6H3.5V3.5H1.5V6H0ZM6.5 6V0H10C10.4 0 10.75 0.15 11.05 0.45C11.35 0.75 11.5 1.1 11.5 1.5V4.5C11.5 4.9 11.35 5.25 11.05 5.55C10.75 5.85 10.4 6 10 6H6.5ZM8 4.5H10V1.5H8V4.5Z" fill="#F6F6F6"/>
</svg>
