<svg width="20" height="20" viewBox="0 0 20 20" fill="none" xmlns="http://www.w3.org/2000/svg">
<path d="M6.3 13.5H7.65L8.4 11.45H11.6L12.35 13.5H13.75L10.7 5.5H9.3L6.3 13.5ZM8.8 10.3L9.95 7H10.05L11.2 10.3H8.8ZM10 20C8.61667 20 7.31667 19.7375 6.1 19.2125C4.88333 18.6875 3.825 17.975 2.925 17.075C2.025 16.175 1.3125 15.1167 0.7875 13.9C0.2625 12.6833 0 11.3833 0 10C0 9.28333 0.075 8.57917 0.225 7.8875C0.375 7.19583 0.591667 6.525 0.875 5.875L2.425 7.425C2.29167 7.85833 2.1875 8.2875 2.1125 8.7125C2.0375 9.1375 2 9.56667 2 10C2 12.2333 2.775 14.125 4.325 15.675C5.875 17.225 7.76667 18 10 18C12.2333 18 14.125 17.225 15.675 15.675C17.225 14.125 18 12.2333 18 10C18 7.76667 17.225 5.875 15.675 4.325C14.125 2.775 12.2333 2 10 2C9.55 2 9.1125 2.0375 8.6875 2.1125C8.2625 2.1875 7.84167 2.29167 7.425 2.425L5.9 0.9C6.56667 0.6 7.23333 0.375 7.9 0.225C8.56667 0.075 9.26667 0 10 0C11.3833 0 12.6833 0.2625 13.9 0.7875C15.1167 1.3125 16.175 2.025 17.075 2.925C17.975 3.825 18.6875 4.88333 19.2125 6.1C19.7375 7.31667 20 8.61667 20 10C20 11.3833 19.7375 12.6833 19.2125 13.9C18.6875 15.1167 17.975 16.175 17.075 17.075C16.175 17.975 15.1167 18.6875 13.9 19.2125C12.6833 19.7375 11.3833 20 10 20ZM3.5 5C3.08333 5 2.72917 4.85417 2.4375 4.5625C2.14583 4.27083 2 3.91667 2 3.5C2 3.08333 2.14583 2.72917 2.4375 2.4375C2.72917 2.14583 3.08333 2 3.5 2C3.91667 2 4.27083 2.14583 4.5625 2.4375C4.85417 2.72917 5 3.08333 5 3.5C5 3.91667 4.85417 4.27083 4.5625 4.5625C4.27083 4.85417 3.91667 5 3.5 5ZM4 10C4 8.33333 4.58333 6.91667 5.75 5.75C6.91667 4.58333 8.33333 4 10 4C11.6667 4 13.0833 4.58333 14.25 5.75C15.4167 6.91667 16 8.33333 16 10C16 11.6667 15.4167 13.0833 14.25 14.25C13.0833 15.4167 11.6667 16 10 16C8.33333 16 6.91667 15.4167 5.75 14.25C4.58333 13.0833 4 11.6667 4 10Z" fill="#F6F6F6"/>
</svg>
