<svg width="20" height="22" viewBox="0 0 20 22" fill="none" xmlns="http://www.w3.org/2000/svg">
<path d="M2 18.0251V16.0251H4V9.0251C4 7.64177 4.41667 6.4126 5.25 5.3376C6.08333 4.2626 7.16667 3.55843 8.5 3.2251V2.5251C8.5 2.10843 8.64583 1.75426 8.9375 1.4626C9.22917 1.17093 9.58333 1.0251 10 1.0251C10.4167 1.0251 10.7708 1.17093 11.0625 1.4626C11.3542 1.75426 11.5 2.10843 11.5 2.5251V3.2251C12.8333 3.55843 13.9167 4.2626 14.75 5.3376C15.5833 6.4126 16 7.64177 16 9.0251V16.0251H18V18.0251H2ZM10 21.0251C9.45 21.0251 8.97917 20.8293 8.5875 20.4376C8.19583 20.0459 8 19.5751 8 19.0251H12C12 19.5751 11.8042 20.0459 11.4125 20.4376C11.0208 20.8293 10.55 21.0251 10 21.0251ZM0 9.0251C0 7.35843 0.370833 5.82926 1.1125 4.4376C1.85417 3.04593 2.85 1.89176 4.1 0.975098L5.275 2.5751C4.275 3.30843 3.47917 4.23343 2.8875 5.3501C2.29583 6.46676 2 7.69177 2 9.0251H0ZM18 9.0251C18 7.69177 17.7042 6.46676 17.1125 5.3501C16.5208 4.23343 15.725 3.30843 14.725 2.5751L15.9 0.975098C17.15 1.89176 18.1458 3.04593 18.8875 4.4376C19.6292 5.82926 20 7.35843 20 9.0251H18Z" fill="#F6F6F6"/>
</svg>
