<svg width="20" height="18" viewBox="0 0 20 18" fill="none" xmlns="http://www.w3.org/2000/svg">
<path d="M15.75 17.25C14.7 17.25 13.8125 16.8875 13.0875 16.1625C12.3625 15.4375 12 14.55 12 13.5C12 12.45 12.3625 11.5625 13.0875 10.8375C13.8125 10.1125 14.7 9.75 15.75 9.75C16.8 9.75 17.6875 10.1125 18.4125 10.8375C19.1375 11.5625 19.5 12.45 19.5 13.5C19.5 14.55 19.1375 15.4375 18.4125 16.1625C17.6875 16.8875 16.8 17.25 15.75 17.25ZM2 14.5V12.5H10V14.5H2ZM4.25 8.25C3.2 8.25 2.3125 7.8875 1.5875 7.1625C0.8625 6.4375 0.5 5.55 0.5 4.5C0.5 3.45 0.8625 2.5625 1.5875 1.8375C2.3125 1.1125 3.2 0.75 4.25 0.75C5.3 0.75 6.1875 1.1125 6.9125 1.8375C7.6375 2.5625 8 3.45 8 4.5C8 5.55 7.6375 6.4375 6.9125 7.1625C6.1875 7.8875 5.3 8.25 4.25 8.25ZM10 5.5V3.5H18V5.5H10Z" fill="#F6F6F6"/>
</svg>
