<svg width="20" height="20" viewBox="0 0 20 20" fill="none" xmlns="http://www.w3.org/2000/svg">
<path d="M17.825 19.6501L11.475 13.3001C10.975 13.6834 10.3625 13.9876 9.63751 14.2126C8.91251 14.4376 8.17501 14.5501 7.42501 14.5501C5.44168 14.5501 3.76251 13.8626 2.38751 12.4876C1.01251 11.1126 0.325012 9.43343 0.325012 7.4501C0.325012 5.46676 1.01251 3.7876 2.38751 2.4126C3.76251 1.0376 5.44168 0.350098 7.42501 0.350098C9.40835 0.350098 11.0875 1.0376 12.4625 2.4126C13.8375 3.7876 14.525 5.46676 14.525 7.4501C14.525 8.2001 14.4208 8.91677 14.2125 9.6001C14.0042 10.2834 13.7 10.8918 13.3 11.4251L19.675 17.8001L17.825 19.6501ZM7.42501 11.9001C8.67501 11.9001 9.72918 11.4709 10.5875 10.6126C11.4458 9.75426 11.875 8.7001 11.875 7.4501C11.875 6.2001 11.4458 5.14593 10.5875 4.2876C9.72918 3.42926 8.67501 3.0001 7.42501 3.0001C6.17501 3.0001 5.12085 3.42926 4.26251 4.2876C3.40418 5.14593 2.97501 6.2001 2.97501 7.4501C2.97501 8.7001 3.40418 9.75426 4.26251 10.6126C5.12085 11.4709 6.17501 11.9001 7.42501 11.9001Z" fill="#F6F6F6"/>
</svg>
