<svg width="20" height="20" viewBox="0 0 20 20" fill="none" xmlns="http://www.w3.org/2000/svg">
<path d="M10.5875 19.4C10.1875 19.8 9.71251 20 9.16251 20C8.61251 20 8.13751 19.8 7.73751 19.4L0.587512 12.25C0.204179 11.8667 0.0125122 11.3958 0.0125122 10.8375C0.0125122 10.2792 0.204179 9.80833 0.587512 9.425L9.38751 0.6C9.57085 0.416667 9.78751 0.270833 10.0375 0.1625C10.2875 0.0541667 10.5542 0 10.8375 0H17.9875C18.5375 0 19.0083 0.195833 19.4 0.5875C19.7917 0.979167 19.9875 1.45 19.9875 2V9.15C19.9875 9.43333 19.9333 9.7 19.825 9.95C19.7167 10.2 19.5708 10.4167 19.3875 10.6L10.5875 19.4ZM15.4875 6C15.9042 6 16.2583 5.85417 16.55 5.5625C16.8417 5.27083 16.9875 4.91667 16.9875 4.5C16.9875 4.08333 16.8417 3.72917 16.55 3.4375C16.2583 3.14583 15.9042 3 15.4875 3C15.0708 3 14.7167 3.14583 14.425 3.4375C14.1333 3.72917 13.9875 4.08333 13.9875 4.5C13.9875 4.91667 14.1333 5.27083 14.425 5.5625C14.7167 5.85417 15.0708 6 15.4875 6ZM9.16251 18L17.9875 9.15V2H10.8375L2.01251 10.85L9.16251 18Z" fill="#F6F6F6"/>
</svg>
