<svg width="22" height="20" viewBox="0 0 22 20" fill="none" xmlns="http://www.w3.org/2000/svg">
<path d="M11.65 8L10.25 6.6L11.825 5H7.65002V3H11.825L10.225 1.4L11.65 0L15.65 4L11.65 8ZM6.65002 20C6.10002 20 5.62919 19.8042 5.23752 19.4125C4.84586 19.0208 4.65002 18.55 4.65002 18C4.65002 17.45 4.84586 16.9792 5.23752 16.5875C5.62919 16.1958 6.10002 16 6.65002 16C7.20002 16 7.67086 16.1958 8.06252 16.5875C8.45419 16.9792 8.65002 17.45 8.65002 18C8.65002 18.55 8.45419 19.0208 8.06252 19.4125C7.67086 19.8042 7.20002 20 6.65002 20ZM16.65 20C16.1 20 15.6292 19.8042 15.2375 19.4125C14.8459 19.0208 14.65 18.55 14.65 18C14.65 17.45 14.8459 16.9792 15.2375 16.5875C15.6292 16.1958 16.1 16 16.65 16C17.2 16 17.6709 16.1958 18.0625 16.5875C18.4542 16.9792 18.65 17.45 18.65 18C18.65 18.55 18.4542 19.0208 18.0625 19.4125C17.6709 19.8042 17.2 20 16.65 20ZM0.650024 2V0H3.92502L8.17502 9H15.175L19.075 2H21.35L16.95 9.95C16.7667 10.2833 16.5209 10.5417 16.2125 10.725C15.9042 10.9083 15.5667 11 15.2 11H7.75002L6.65002 13H18.65V15H6.65002C5.90002 15 5.32919 14.675 4.93752 14.025C4.54586 13.375 4.53336 12.7167 4.90002 12.05L6.25002 9.6L2.65002 2H0.650024Z" fill="#F6F6F6"/>
</svg>
