<svg width="20" height="20" viewBox="0 0 20 20" fill="none" xmlns="http://www.w3.org/2000/svg">
<path d="M6.00922 20C5.45922 20 4.98838 19.8042 4.59672 19.4125C4.20505 19.0208 4.00922 18.55 4.00922 18C4.00922 17.45 4.20505 16.9792 4.59672 16.5875C4.98838 16.1958 5.45922 16 6.00922 16C6.55922 16 7.03005 16.1958 7.42172 16.5875C7.81338 16.9792 8.00922 17.45 8.00922 18C8.00922 18.55 7.81338 19.0208 7.42172 19.4125C7.03005 19.8042 6.55922 20 6.00922 20ZM16.0092 20C15.4592 20 14.9884 19.8042 14.5967 19.4125C14.2051 19.0208 14.0092 18.55 14.0092 18C14.0092 17.45 14.2051 16.9792 14.5967 16.5875C14.9884 16.1958 15.4592 16 16.0092 16C16.5592 16 17.0301 16.1958 17.4217 16.5875C17.8134 16.9792 18.0092 17.45 18.0092 18C18.0092 18.55 17.8134 19.0208 17.4217 19.4125C17.0301 19.8042 16.5592 20 16.0092 20ZM4.20922 2H18.9592C19.3426 2 19.6342 2.17083 19.8342 2.5125C20.0342 2.85417 20.0425 3.2 19.8592 3.55L16.3092 9.95C16.1259 10.2833 15.88 10.5417 15.5717 10.725C15.2634 10.9083 14.9259 11 14.5592 11H7.10922L6.00922 13H18.0092V15H6.00922C5.25922 15 4.69255 14.6708 4.30922 14.0125C3.92588 13.3542 3.90922 12.7 4.25922 12.05L5.60922 9.6L2.00922 2H0.00921631V0H3.25922L4.20922 2Z" fill="#F6F6F6"/>
</svg>
