<svg width="20" height="20" viewBox="0 0 20 20" fill="none" xmlns="http://www.w3.org/2000/svg">
<path d="M2.225 16.2999C1.525 15.4332 0.979167 14.4624 0.5875 13.3874C0.195833 12.3124 0 11.1749 0 9.9749C0 7.35824 0.8625 5.10824 2.5875 3.2249C4.3125 1.34157 6.45 0.274902 9 0.0249023V2.0249C7 2.25824 5.33333 3.1249 4 4.6249C2.66667 6.1249 2 7.90824 2 9.9749C2 10.9082 2.14167 11.7874 2.425 12.6124C2.70833 13.4374 3.11667 14.1916 3.65 14.8749L2.225 16.2999ZM10 19.9749C8.78333 19.9749 7.63333 19.7749 6.55 19.3749C5.46667 18.9749 4.49167 18.4166 3.625 17.6999L5.025 16.2749C5.70833 16.8082 6.47083 17.2249 7.3125 17.5249C8.15417 17.8249 9.05 17.9749 10 17.9749C10.95 17.9749 11.8458 17.8249 12.6875 17.5249C13.5292 17.2249 14.2917 16.8082 14.975 16.2749L16.375 17.6999C15.5083 18.4166 14.5333 18.9749 13.45 19.3749C12.3667 19.7749 11.2167 19.9749 10 19.9749ZM17.775 16.2999L16.35 14.8749C16.8833 14.1916 17.2917 13.4374 17.575 12.6124C17.8583 11.7874 18 10.9082 18 9.9749C18 7.90824 17.3333 6.1249 16 4.6249C14.6667 3.1249 13 2.25824 11 2.0249V0.0249023C13.55 0.274902 15.6875 1.34157 17.4125 3.2249C19.1375 5.10824 20 7.35824 20 9.9749C20 11.1749 19.8042 12.3124 19.4125 13.3874C19.0208 14.4624 18.475 15.4332 17.775 16.2999ZM7.5 14.4749V5.4749L14.5 9.9749L7.5 14.4749Z" fill="#F6F6F6"/>
</svg>
