<svg width="20" height="20" viewBox="0 0 20 20" fill="none" xmlns="http://www.w3.org/2000/svg">
<path d="M10.85 20C9.95 20 9.19167 19.6917 8.575 19.075C7.95833 18.4583 7.65 17.7167 7.65 16.85C7.65 15.5833 8.1625 14.4375 9.1875 13.4125C10.2125 12.3875 11.4917 11.75 13.025 11.5C12.975 10.9 12.825 10.4458 12.575 10.1375C12.325 9.82917 11.9833 9.675 11.55 9.675C11.05 9.675 10.5083 9.88333 9.925 10.3C9.34167 10.7167 8.65 11.4 7.85 12.35C6.55 13.9 5.59583 14.9083 4.9875 15.375C4.37917 15.8417 3.725 16.075 3.025 16.075C2.175 16.075 1.45833 15.7583 0.875 15.125C0.291667 14.4917 0 13.725 0 12.825C0 11.925 0.195833 11.0042 0.5875 10.0625C0.979167 9.12083 1.64167 7.99167 2.575 6.675C2.89167 6.24167 3.125 5.875 3.275 5.575C3.425 5.275 3.5 5.03333 3.5 4.85C3.5 4.73333 3.47917 4.64583 3.4375 4.5875C3.39583 4.52917 3.33333 4.5 3.25 4.5C3.08333 4.5 2.875 4.60417 2.625 4.8125C2.375 5.02083 2.08333 5.34167 1.75 5.775L0 4C0.533333 3.35 1.075 2.85417 1.625 2.5125C2.175 2.17083 2.71667 2 3.25 2C4.01667 2 4.66667 2.26667 5.2 2.8C5.73333 3.33333 6 4 6 4.8C6 5.28333 5.875 5.81667 5.625 6.4C5.375 6.98333 4.95833 7.68333 4.375 8.5C3.74167 9.4 3.27083 10.1917 2.9625 10.875C2.65417 11.5583 2.5 12.1583 2.5 12.675C2.5 12.9583 2.54583 13.1792 2.6375 13.3375C2.72917 13.4958 2.85833 13.575 3.025 13.575C3.19167 13.575 3.3375 13.5292 3.4625 13.4375C3.5875 13.3458 3.81667 13.125 4.15 12.775C4.36667 12.5417 4.625 12.2542 4.925 11.9125C5.225 11.5708 5.59167 11.15 6.025 10.65C7.075 9.4 8.025 8.50833 8.875 7.975C9.725 7.44167 10.6167 7.175 11.55 7.175C12.6667 7.175 13.5833 7.55 14.3 8.3C15.0167 9.05 15.425 10.075 15.525 11.375H18V13.875H15.525C15.3917 15.7417 14.9042 17.2292 14.0625 18.3375C13.2208 19.4458 12.15 20 10.85 20ZM10.9 17.5C11.4333 17.5 11.8833 17.1958 12.25 16.5875C12.6167 15.9792 12.8667 15.1333 13 14.05C12.2333 14.2333 11.5667 14.5958 11 15.1375C10.4333 15.6792 10.15 16.2167 10.15 16.75C10.15 16.9833 10.2167 17.1667 10.35 17.3C10.4833 17.4333 10.6667 17.5 10.9 17.5ZM17 6C16.1667 6 15.4583 5.70833 14.875 5.125C14.2917 4.54167 14 3.83333 14 3C14 2.16667 14.2917 1.45833 14.875 0.875C15.4583 0.291667 16.1667 0 17 0C17.8333 0 18.5417 0.291667 19.125 0.875C19.7083 1.45833 20 2.16667 20 3C20 3.83333 19.7083 4.54167 19.125 5.125C18.5417 5.70833 17.8333 6 17 6Z" fill="#F6F6F6"/>
</svg>
