<svg width="24" height="20" viewBox="0 0 24 20" fill="none" xmlns="http://www.w3.org/2000/svg">
<path d="M19.75 19.9001L10.35 10.4501C9.56667 10.6334 8.8375 10.9084 8.1625 11.2751C7.4875 11.6418 6.88333 12.1001 6.35 12.6501L4.25 10.5001C4.78333 9.96676 5.35833 9.5001 5.975 9.1001C6.59167 8.7001 7.25 8.3501 7.95 8.0501L5.7 5.8001C5.01667 6.1501 4.37917 6.5376 3.7875 6.9626C3.19583 7.3876 2.63333 7.86677 2.1 8.4001L0 6.2501C0.533333 5.71676 1.0875 5.2376 1.6625 4.8126C2.2375 4.3876 2.85 3.98343 3.5 3.6001L1.4 1.5001L2.8 0.100098L21.2 18.5001L19.75 19.9001ZM12 18.3001C11.3 18.3001 10.7083 18.0543 10.225 17.5626C9.74167 17.0709 9.5 16.4834 9.5 15.8001C9.5 15.1001 9.74167 14.5084 10.225 14.0251C10.7083 13.5418 11.3 13.3001 12 13.3001C12.7 13.3001 13.2917 13.5418 13.775 14.0251C14.2583 14.5084 14.5 15.1001 14.5 15.8001C14.5 16.4834 14.2583 17.0709 13.775 17.5626C13.2917 18.0543 12.7 18.3001 12 18.3001ZM17.9 12.3501L12.85 7.3001C14.2 7.43343 15.4625 7.7751 16.6375 8.3251C17.8125 8.8751 18.85 9.6001 19.75 10.5001L17.9 12.3501ZM21.9 8.4001C20.6167 7.11677 19.1292 6.1126 17.4375 5.3876C15.7458 4.6626 13.9333 4.3001 12 4.3001C11.65 4.3001 11.3125 4.3126 10.9875 4.3376C10.6625 4.3626 10.3333 4.4001 10 4.4501L7.45 1.9001C8.18333 1.7001 8.92917 1.5501 9.6875 1.4501C10.4458 1.3501 11.2167 1.3001 12 1.3001C14.3667 1.3001 16.575 1.74176 18.625 2.6251C20.675 3.50843 22.4667 4.71676 24 6.2501L21.9 8.4001Z" fill="#F6F6F6"/>
</svg>
