<svg xmlns="http://www.w3.org/2000/svg" xmlns:xlink="http://www.w3.org/1999/xlink" style="position:absolute; width:0; height:0; overflow:hidden">
  
  <!--Иконка whatsup-->
  <symbol id="whatsup-icon" >    
    <path d="M15.3769 2.61904C14.5475 1.78574 13.5597 1.12502 12.4711 0.675373C11.3825 0.225731 10.2148 -0.00383684 9.03618 4.85055e-05C4.09749 4.85055e-05 0.0723619 4.00504 0.0723619 8.91902C0.0723619 10.494 0.488442 12.024 1.26633 13.374L0 18L4.74874 16.758C6.0603 17.469 7.53467 17.847 9.03618 17.847C13.9749 17.847 18 13.842 18 8.92803C18 6.54303 17.0683 4.30204 15.3769 2.61904ZM9.03618 16.335C7.69749 16.335 6.38593 15.975 5.23719 15.3L4.96583 15.138L2.14372 15.876L2.89447 13.14L2.71357 12.861C1.96964 11.6794 1.57471 10.3134 1.57387 8.91902C1.57387 4.83304 4.9206 1.50304 9.02713 1.50304C11.0171 1.50304 12.8894 2.27704 14.2915 3.68104C14.9858 4.36851 15.536 5.18632 15.9102 6.08703C16.2844 6.98773 16.4752 7.9534 16.4714 8.92803C16.4894 13.014 13.1427 16.335 9.03618 16.335ZM13.1246 10.791C12.8985 10.683 11.795 10.143 11.596 10.062C11.3879 9.99002 11.2432 9.95402 11.0894 10.17C10.9357 10.395 10.5106 10.899 10.3839 11.043C10.2573 11.196 10.1216 11.214 9.89548 11.097C9.66935 10.989 8.94573 10.746 8.09548 9.99002C7.42613 9.39602 6.98291 8.66703 6.84724 8.44203C6.7206 8.21703 6.82914 8.10003 6.94673 7.98303C7.04623 7.88403 7.17286 7.72203 7.28141 7.59603C7.38995 7.47003 7.43518 7.37103 7.50754 7.22703C7.5799 7.07403 7.54372 6.94803 7.48945 6.84003C7.43517 6.73203 6.98291 5.63403 6.80201 5.18403C6.6211 4.75204 6.43116 4.80604 6.29548 4.79704H5.86131C5.70754 4.79704 5.47236 4.85104 5.26432 5.07604C5.06533 5.30103 4.48643 5.84103 4.48643 6.93903C4.48643 8.03703 5.29146 9.09902 5.4 9.24302C5.50854 9.39602 6.98291 11.646 9.22613 12.609C9.7598 12.843 10.1759 12.978 10.5015 13.077C11.0352 13.248 11.5236 13.221 11.9126 13.167C12.3467 13.104 13.2422 12.627 13.4231 12.105C13.6131 11.583 13.6131 11.142 13.5497 11.043C13.4864 10.944 13.3508 10.899 13.1246 10.791Z"/>
  </symbol>  


  <!--Иконка vk-->
  <symbol id="vk-icon" >
    <g clip-path="url(#clip0_83_4)">
    <path d="M11.8077 10.147C11.5887 9.91009 11.3426 9.69963 11.0747 9.51989C12.156 8.68386 12.9137 7.4986 13.2188 6.16626C13.2413 6.06998 13.2445 5.97019 13.2283 5.87265C13.2121 5.7751 13.1768 5.68172 13.1244 5.59788C13.072 5.51404 13.0035 5.44139 12.9229 5.38412C12.8423 5.32685 12.7511 5.28608 12.6547 5.26415C12.5583 5.24223 12.4585 5.2396 12.361 5.25639C12.2636 5.27319 12.1704 5.30909 12.0869 5.36203C12.0034 5.41496 11.9312 5.48389 11.8744 5.56485C11.8176 5.6458 11.7774 5.73719 11.7561 5.83374C11.614 6.45696 11.3378 7.0417 10.9465 7.54718C10.5552 8.05265 10.0584 8.4667 9.49072 8.76045V6.0015C9.48609 5.94631 9.47509 5.89184 9.45795 5.83918C9.45299 5.79581 9.44433 5.75295 9.43208 5.71105C9.40008 5.64285 9.3579 5.5799 9.30697 5.52437C9.29356 5.50844 9.28679 5.48743 9.27214 5.4727C9.2172 5.42198 9.15499 5.37975 9.08757 5.3474C9.06844 5.33719 9.0542 5.31994 9.0341 5.3114C8.97664 5.29226 8.91711 5.28001 8.85677 5.27491C8.81952 5.26401 8.78145 5.25619 8.74292 5.25152L8.2522 5.25H8.25C8.07455 5.24916 7.90441 5.31016 7.76945 5.42228C7.63449 5.5344 7.54334 5.69048 7.512 5.86311C7.48066 6.03574 7.51114 6.2139 7.59808 6.3663C7.68502 6.5187 7.82287 6.6356 7.98743 6.69649V10.3645C6.79892 9.13076 6.01194 7.56599 5.73011 5.87625C5.71366 5.77915 5.67825 5.68625 5.62589 5.60284C5.57354 5.51942 5.50527 5.44714 5.42498 5.39011C5.34469 5.33309 5.25396 5.29243 5.15796 5.27047C5.06196 5.24851 4.96257 5.24567 4.86547 5.26212C4.76838 5.27857 4.67547 5.31398 4.59206 5.36633C4.50865 5.41869 4.43637 5.48696 4.37934 5.56724C4.32231 5.64753 4.28166 5.73827 4.2597 5.83427C4.23773 5.93027 4.2349 6.02965 4.25134 6.12675C4.68964 8.73867 6.14613 11.0701 8.30127 12.6094C8.33201 12.6278 8.36405 12.644 8.39713 12.6578C8.4231 12.673 8.45003 12.6866 8.47774 12.6984C8.56147 12.7319 8.65057 12.7499 8.74072 12.7515C8.85106 12.7501 8.95969 12.724 9.05859 12.6751C9.06605 12.6716 9.07462 12.6732 9.08203 12.6695C9.14832 12.6349 9.20903 12.5906 9.26212 12.538C9.27278 12.5276 9.27992 12.5148 9.28999 12.5039C9.33839 12.4507 9.37879 12.3908 9.40993 12.326C9.42037 12.3044 9.42988 12.2839 9.43826 12.2613C9.47122 12.1785 9.48899 12.0905 9.49072 12.0015L9.49109 10.407C9.95579 10.5434 10.3745 10.804 10.7021 11.1607L11.9381 12.5083C12.0046 12.5811 12.0848 12.6401 12.1741 12.6819C12.2634 12.7237 12.3601 12.7475 12.4587 12.7518C12.5572 12.7562 12.6556 12.7411 12.7482 12.7074C12.8409 12.6737 12.926 12.622 12.9987 12.5553C13.0714 12.4887 13.1302 12.4083 13.1718 12.3189C13.2134 12.2295 13.2369 12.1328 13.241 12.0342C13.2452 11.9357 13.2299 11.8373 13.1959 11.7448C13.162 11.6522 13.1102 11.5672 13.0433 11.4946L11.8077 10.147ZM11.3046 0.75H6.70312C2.0852 0.75 0.75 2.08374 0.75 6.69507V11.2969C0.75 15.9148 2.08337 17.25 6.69544 17.25H11.2969C15.9148 17.25 17.25 15.9163 17.25 11.3049V6.70312C17.25 2.0852 15.9166 0.75 11.3046 0.75ZM15.75 11.3049C15.75 15.085 15.0842 15.75 11.2969 15.75H6.69544C2.91467 15.75 2.25 15.0842 2.25 11.2969V6.69507C2.25 2.91504 2.91578 2.25 6.70312 2.25H11.3046C15.0853 2.25 15.75 2.91578 15.75 6.70312V11.3049Z" />
    </g>
    <defs>
    <clipPath id="clip0_83_4">
    <rect width="18" height="18" fill="white"/>
    </clipPath>
    </defs>  
  </symbol>  

  <!--Иконка instagram-->
  <symbol id="instagram-icon" class="instagram-icon" style="position:relative;top:2px">  
    <path d="M13.6154 5.76923C14.3801 5.76923 15 5.14932 15 4.38462C15 3.61991 14.3801 3 13.6154 3C12.8507 3 12.2308 3.61991 12.2308 4.38462C12.2308 5.14932 12.8507 5.76923 13.6154 5.76923Z" />
    <path fill-rule="evenodd" clip-rule="evenodd" d="M5.30769 1.38462C3.14235 1.38462 1.38462 3.14235 1.38462 5.30769V12.6923C1.38462 14.8576 3.14235 16.6154 5.30769 16.6154H12.6923C14.8576 16.6154 16.6154 14.8576 16.6154 12.6923V5.30769C16.6154 3.14235 14.8576 1.38462 12.6923 1.38462H5.30769ZM0 5.30769C0 2.37765 2.37765 0 5.30769 0H12.6923C15.6224 0 18 2.37765 18 5.30769V12.6923C18 15.6224 15.6224 18 12.6923 18H5.30769C2.37765 18 0 15.6224 0 12.6923V5.30769Z" />
    <path fill-rule="evenodd" clip-rule="evenodd" d="M9 6C7.34235 6 6 7.34235 6 9C6 10.6576 7.34235 12 9 12C10.6576 12 12 10.6576 12 9C12 7.34235 10.6576 6 9 6ZM4.61538 9C4.61538 6.57765 6.57765 4.61538 9 4.61538C11.4224 4.61538 13.3846 6.57765 13.3846 9C13.3846 11.4224 11.4224 13.3846 9 13.3846C6.57765 13.3846 4.61538 11.4224 4.61538 9Z" />
    
  </symbol> 


  <symbol id="telegram-icon" >
    <g clip-path="url(#clip0_83_10)">
    <path fill-rule="evenodd" clip-rule="evenodd" d="M17.1004 8.9999C17.1004 13.4734 13.4739 17.0999 9.00039 17.0999C4.52689 17.0999 0.900391 13.4734 0.900391 8.9999C0.900391 4.52639 4.52689 0.899902 9.00039 0.899902C13.4739 0.899902 17.1004 4.52639 17.1004 8.9999ZM9.29062 6.87968C8.50281 7.20737 6.92822 7.88559 4.56691 8.91437C4.18347 9.06689 3.98261 9.21609 3.96432 9.36189C3.93342 9.60846 4.24212 9.70549 4.66248 9.83768C4.71966 9.85567 4.7789 9.8743 4.83964 9.89398C5.25322 10.0284 5.80954 10.1857 6.09875 10.192C6.36109 10.1976 6.6539 10.0895 6.97716 9.86749C9.18337 8.37823 10.3223 7.62549 10.3938 7.60921C10.4442 7.59779 10.5141 7.58337 10.5615 7.62549C10.6089 7.66761 10.6042 7.74732 10.5992 7.7687C10.5686 7.89911 9.35688 9.02566 8.72977 9.60862C8.53432 9.79038 8.39565 9.91925 8.3673 9.94874C8.30379 10.0147 8.23908 10.077 8.17687 10.137C7.79268 10.5074 7.50449 10.7851 8.19283 11.2387C8.52355 11.4567 8.78826 11.6369 9.05232 11.8168C9.34068 12.0132 9.62831 12.209 10.0005 12.453C10.0953 12.5151 10.1858 12.5797 10.274 12.6426C10.6096 12.8818 10.9111 13.0968 11.2836 13.0625C11.5001 13.0426 11.7236 12.8391 11.8372 12.232C12.1055 10.7975 12.633 7.68932 12.7549 6.40856C12.7656 6.29635 12.7522 6.15274 12.7413 6.08969C12.7305 6.02665 12.708 5.93682 12.626 5.87033C12.529 5.79158 12.3791 5.77498 12.3122 5.7761C12.0075 5.78153 11.5401 5.94406 9.29062 6.87968Z" />
    </g>
  </symbol>  
  <symbol id="phone-icon" >  
    <circle cx="34" cy="34" r="34" />
  </symbol> 

</svg>